# xmcd
#
# Track frame offsets: 
#        150
#        20905
#        35907
#        53430
#        68385
#        86825
#        106340
#        123980
#        151260
#
# Disc length: 2249 seconds
#
# Revision: 0
# Processed by: cddbd v1.5.2PL0 Copyright (c) Steve Scherf et al.
# Submitted via: ExactAudioCopy v0.99pb4
#
DISCID=6e08c709
DTITLE=Young Holt Unlimited - Plays Super Fly
DYEAR=1973
DGENRE=Jazz
TTITLE0=Freddie's Dead
TTITLE1=Give Me Your Love
TTITLE2=Pusher Man
TTITLE3=Superfly
TTITLE4=Hey Pancho
TTITLE5=Could It Be I'm Falling In Love
TTITLE6=They Long To Be Close To You
TTITLE7=People Make The World Go Round
TTITLE8=Mystical Man
EXTD=
EXTT0=
EXTT1=
EXTT2=
EXTT3=
EXTT4=
EXTT5=
EXTT6=
EXTT7=
EXTT8=
PLAYORDER=
